<mxfile modified="2023-09-04T09:54:08.736Z" host="app.diagrams.net" agent="Mozilla/5.0 (Windows NT 10.0; Win64; x64) AppleWebKit/537.36 (KHTML, like Gecko) Chrome/116.0.0.0 Safari/537.36" etag="-yGGt2S96JeZtfvJ2ba2" version="21.7.2" type="github">
  <diagram id="Ht1M8jgEwFfnCIfOTk4-" name="Page-1">
    <mxGraphModel dx="1562" dy="1657" grid="1" gridSize="10" guides="1" tooltips="1" connect="1" arrows="1" fold="1" page="1" pageScale="1" pageWidth="1169" pageHeight="827" math="0" shadow="0">
      <root>
        <mxCell id="0" />
        <mxCell id="1" parent="0" />
        <mxCell id="UEzPUAAOIrF-is8g5C7q-175" value="AWS Cloud" style="points=[[0,0],[0.25,0],[0.5,0],[0.75,0],[1,0],[1,0.25],[1,0.5],[1,0.75],[1,1],[0.75,1],[0.5,1],[0.25,1],[0,1],[0,0.75],[0,0.5],[0,0.25]];outlineConnect=0;gradientColor=none;html=1;whiteSpace=wrap;fontSize=12;fontStyle=0;shape=mxgraph.aws4.group;grIcon=mxgraph.aws4.group_aws_cloud_alt;strokeColor=#232F3E;fillColor=none;verticalAlign=top;align=left;spacingLeft=30;fontColor=#232F3E;dashed=0;labelBackgroundColor=#ffffff;container=1;pointerEvents=0;collapsible=0;recursiveResize=0;" parent="1" vertex="1">
          <mxGeometry x="140" y="-700" width="910" height="350" as="geometry" />
        </mxCell>
        <mxCell id="JczIq_RWZngDEP0yUa-Y-13" value="" style="edgeStyle=orthogonalEdgeStyle;rounded=0;orthogonalLoop=1;jettySize=auto;html=1;" edge="1" parent="UEzPUAAOIrF-is8g5C7q-175" source="JczIq_RWZngDEP0yUa-Y-9" target="JczIq_RWZngDEP0yUa-Y-12">
          <mxGeometry relative="1" as="geometry" />
        </mxCell>
        <mxCell id="JczIq_RWZngDEP0yUa-Y-25" value="message" style="edgeLabel;html=1;align=center;verticalAlign=middle;resizable=0;points=[];" vertex="1" connectable="0" parent="JczIq_RWZngDEP0yUa-Y-13">
          <mxGeometry x="-0.1463" y="1" relative="1" as="geometry">
            <mxPoint as="offset" />
          </mxGeometry>
        </mxCell>
        <object label="API Gateway" id="JczIq_RWZngDEP0yUa-Y-9">
          <mxCell style="sketch=0;points=[[0,0,0],[0.25,0,0],[0.5,0,0],[0.75,0,0],[1,0,0],[0,1,0],[0.25,1,0],[0.5,1,0],[0.75,1,0],[1,1,0],[0,0.25,0],[0,0.5,0],[0,0.75,0],[1,0.25,0],[1,0.5,0],[1,0.75,0]];outlineConnect=0;fontColor=#232F3E;gradientColor=#945DF2;gradientDirection=north;fillColor=#5A30B5;strokeColor=#ffffff;dashed=0;verticalLabelPosition=bottom;verticalAlign=top;align=center;html=1;fontSize=12;fontStyle=0;aspect=fixed;shape=mxgraph.aws4.resourceIcon;resIcon=mxgraph.aws4.api_gateway;" vertex="1" parent="UEzPUAAOIrF-is8g5C7q-175">
            <mxGeometry x="130" y="40" width="78" height="78" as="geometry" />
          </mxCell>
        </object>
        <mxCell id="JczIq_RWZngDEP0yUa-Y-15" value="" style="edgeStyle=orthogonalEdgeStyle;rounded=0;orthogonalLoop=1;jettySize=auto;html=1;" edge="1" parent="UEzPUAAOIrF-is8g5C7q-175" source="JczIq_RWZngDEP0yUa-Y-12" target="JczIq_RWZngDEP0yUa-Y-14">
          <mxGeometry relative="1" as="geometry" />
        </mxCell>
        <mxCell id="JczIq_RWZngDEP0yUa-Y-26" value="new chat contact context:&amp;nbsp;StartChatContact,&lt;br/&gt;StartContactStreaming, and&lt;br/&gt;CreateParticipantConnection" style="edgeLabel;html=1;align=center;verticalAlign=middle;resizable=0;points=[];" vertex="1" connectable="0" parent="JczIq_RWZngDEP0yUa-Y-15">
          <mxGeometry x="-0.2348" y="2" relative="1" as="geometry">
            <mxPoint as="offset" />
          </mxGeometry>
        </mxCell>
        <mxCell id="JczIq_RWZngDEP0yUa-Y-17" value="" style="edgeStyle=orthogonalEdgeStyle;rounded=0;orthogonalLoop=1;jettySize=auto;html=1;" edge="1" parent="UEzPUAAOIrF-is8g5C7q-175" source="JczIq_RWZngDEP0yUa-Y-12" target="JczIq_RWZngDEP0yUa-Y-16">
          <mxGeometry relative="1" as="geometry" />
        </mxCell>
        <mxCell id="JczIq_RWZngDEP0yUa-Y-27" value="existing chat connect" style="edgeLabel;html=1;align=center;verticalAlign=middle;resizable=0;points=[];" vertex="1" connectable="0" parent="JczIq_RWZngDEP0yUa-Y-17">
          <mxGeometry x="-0.1818" y="1" relative="1" as="geometry">
            <mxPoint as="offset" />
          </mxGeometry>
        </mxCell>
        <mxCell id="JczIq_RWZngDEP0yUa-Y-12" value="" style="sketch=0;outlineConnect=0;fontColor=#232F3E;gradientColor=none;fillColor=#D45B07;strokeColor=none;dashed=0;verticalLabelPosition=bottom;verticalAlign=top;align=center;html=1;fontSize=12;fontStyle=0;aspect=fixed;pointerEvents=1;shape=mxgraph.aws4.lambda_function;" vertex="1" parent="UEzPUAAOIrF-is8g5C7q-175">
          <mxGeometry x="290" y="55" width="48" height="48" as="geometry" />
        </mxCell>
        <mxCell id="JczIq_RWZngDEP0yUa-Y-14" value="Dynamo DB" style="outlineConnect=0;dashed=0;verticalLabelPosition=bottom;verticalAlign=top;align=center;html=1;shape=mxgraph.aws3.dynamo_db;fillColor=#2E73B8;gradientColor=none;" vertex="1" parent="UEzPUAAOIrF-is8g5C7q-175">
          <mxGeometry x="278" y="230" width="72" height="81" as="geometry" />
        </mxCell>
        <mxCell id="JczIq_RWZngDEP0yUa-Y-19" value="" style="edgeStyle=orthogonalEdgeStyle;rounded=0;orthogonalLoop=1;jettySize=auto;html=1;" edge="1" parent="UEzPUAAOIrF-is8g5C7q-175" source="JczIq_RWZngDEP0yUa-Y-16" target="JczIq_RWZngDEP0yUa-Y-18">
          <mxGeometry relative="1" as="geometry" />
        </mxCell>
        <mxCell id="JczIq_RWZngDEP0yUa-Y-28" value="streams messages" style="edgeLabel;html=1;align=center;verticalAlign=middle;resizable=0;points=[];" vertex="1" connectable="0" parent="JczIq_RWZngDEP0yUa-Y-19">
          <mxGeometry x="-0.3214" y="3" relative="1" as="geometry">
            <mxPoint x="30" y="3" as="offset" />
          </mxGeometry>
        </mxCell>
        <mxCell id="JczIq_RWZngDEP0yUa-Y-16" value="AMAZON Connect" style="sketch=0;points=[[0,0,0],[0.25,0,0],[0.5,0,0],[0.75,0,0],[1,0,0],[0,1,0],[0.25,1,0],[0.5,1,0],[0.75,1,0],[1,1,0],[0,0.25,0],[0,0.5,0],[0,0.75,0],[1,0.25,0],[1,0.5,0],[1,0.75,0]];outlineConnect=0;fontColor=#232F3E;gradientColor=#FF5252;gradientDirection=north;fillColor=#C7131F;strokeColor=#ffffff;dashed=0;verticalLabelPosition=bottom;verticalAlign=top;align=center;html=1;fontSize=12;fontStyle=0;aspect=fixed;shape=mxgraph.aws4.resourceIcon;resIcon=mxgraph.aws4.connect;" vertex="1" parent="UEzPUAAOIrF-is8g5C7q-175">
          <mxGeometry x="490" y="40" width="78" height="78" as="geometry" />
        </mxCell>
        <mxCell id="JczIq_RWZngDEP0yUa-Y-22" value="" style="edgeStyle=orthogonalEdgeStyle;rounded=0;orthogonalLoop=1;jettySize=auto;html=1;" edge="1" parent="UEzPUAAOIrF-is8g5C7q-175" source="JczIq_RWZngDEP0yUa-Y-18" target="JczIq_RWZngDEP0yUa-Y-21">
          <mxGeometry relative="1" as="geometry" />
        </mxCell>
        <mxCell id="JczIq_RWZngDEP0yUa-Y-29" value="invokes lambda" style="edgeLabel;html=1;align=center;verticalAlign=middle;resizable=0;points=[];" vertex="1" connectable="0" parent="JczIq_RWZngDEP0yUa-Y-22">
          <mxGeometry x="-0.078" y="-1" relative="1" as="geometry">
            <mxPoint as="offset" />
          </mxGeometry>
        </mxCell>
        <mxCell id="JczIq_RWZngDEP0yUa-Y-18" value="Simple Notification Service (SNS topic)" style="sketch=0;points=[[0,0,0],[0.25,0,0],[0.5,0,0],[0.75,0,0],[1,0,0],[0,1,0],[0.25,1,0],[0.5,1,0],[0.75,1,0],[1,1,0],[0,0.25,0],[0,0.5,0],[0,0.75,0],[1,0.25,0],[1,0.5,0],[1,0.75,0]];outlineConnect=0;fontColor=#232F3E;gradientColor=#FF4F8B;gradientDirection=north;fillColor=#BC1356;strokeColor=#ffffff;dashed=0;verticalLabelPosition=bottom;verticalAlign=top;align=center;html=1;fontSize=12;fontStyle=0;aspect=fixed;shape=mxgraph.aws4.resourceIcon;resIcon=mxgraph.aws4.sns;" vertex="1" parent="UEzPUAAOIrF-is8g5C7q-175">
          <mxGeometry x="750" y="40" width="78" height="78" as="geometry" />
        </mxCell>
        <mxCell id="JczIq_RWZngDEP0yUa-Y-23" value="" style="edgeStyle=orthogonalEdgeStyle;rounded=0;orthogonalLoop=1;jettySize=auto;html=1;" edge="1" parent="UEzPUAAOIrF-is8g5C7q-175" source="JczIq_RWZngDEP0yUa-Y-21" target="JczIq_RWZngDEP0yUa-Y-14">
          <mxGeometry relative="1" as="geometry" />
        </mxCell>
        <mxCell id="JczIq_RWZngDEP0yUa-Y-30" value="queries chat&lt;br/&gt;contact context." style="edgeLabel;html=1;align=center;verticalAlign=middle;resizable=0;points=[];" vertex="1" connectable="0" parent="JczIq_RWZngDEP0yUa-Y-23">
          <mxGeometry x="0.6316" relative="1" as="geometry">
            <mxPoint x="65" as="offset" />
          </mxGeometry>
        </mxCell>
        <mxCell id="JczIq_RWZngDEP0yUa-Y-21" value="" style="sketch=0;outlineConnect=0;fontColor=#232F3E;gradientColor=none;fillColor=#D45B07;strokeColor=none;dashed=0;verticalLabelPosition=bottom;verticalAlign=top;align=center;html=1;fontSize=12;fontStyle=0;aspect=fixed;pointerEvents=1;shape=mxgraph.aws4.lambda_function;" vertex="1" parent="UEzPUAAOIrF-is8g5C7q-175">
          <mxGeometry x="765" y="246.5" width="48" height="48" as="geometry" />
        </mxCell>
        <mxCell id="JczIq_RWZngDEP0yUa-Y-10" style="edgeStyle=orthogonalEdgeStyle;rounded=0;orthogonalLoop=1;jettySize=auto;html=1;entryX=0;entryY=0.5;entryDx=0;entryDy=0;entryPerimeter=0;exitX=-0.04;exitY=0.357;exitDx=0;exitDy=0;exitPerimeter=0;" edge="1" parent="1" source="JczIq_RWZngDEP0yUa-Y-2" target="JczIq_RWZngDEP0yUa-Y-9">
          <mxGeometry relative="1" as="geometry">
            <mxPoint x="240" y="-501.5" as="sourcePoint" />
          </mxGeometry>
        </mxCell>
        <mxCell id="JczIq_RWZngDEP0yUa-Y-24" value="message to webhook" style="edgeLabel;html=1;align=center;verticalAlign=middle;resizable=0;points=[];" vertex="1" connectable="0" parent="JczIq_RWZngDEP0yUa-Y-10">
          <mxGeometry x="0.2108" relative="1" as="geometry">
            <mxPoint y="-85" as="offset" />
          </mxGeometry>
        </mxCell>
        <mxCell id="JczIq_RWZngDEP0yUa-Y-2" value="" style="html=1;verticalLabelPosition=bottom;align=center;labelBackgroundColor=#ffffff;verticalAlign=top;strokeWidth=2;strokeColor=#0080F0;shadow=0;dashed=0;shape=mxgraph.ios7.icons.smartphone;" vertex="1" parent="1">
          <mxGeometry x="542" y="-210" width="30" height="61" as="geometry" />
        </mxCell>
        <mxCell id="JczIq_RWZngDEP0yUa-Y-5" value="" style="edgeStyle=orthogonalEdgeStyle;rounded=0;orthogonalLoop=1;jettySize=auto;html=1;" edge="1" parent="1" source="JczIq_RWZngDEP0yUa-Y-3" target="JczIq_RWZngDEP0yUa-Y-2">
          <mxGeometry relative="1" as="geometry" />
        </mxCell>
        <mxCell id="JczIq_RWZngDEP0yUa-Y-3" value="Slack for team members" style="shape=image;html=1;verticalAlign=top;verticalLabelPosition=bottom;labelBackgroundColor=#ffffff;imageAspect=0;aspect=fixed;image=https://cdn2.iconfinder.com/data/icons/social-media-2285/512/1_Slack_colored_svg-128.png" vertex="1" parent="1">
          <mxGeometry x="560" y="-110" width="60" height="60" as="geometry" />
        </mxCell>
        <mxCell id="JczIq_RWZngDEP0yUa-Y-7" value="" style="edgeStyle=orthogonalEdgeStyle;rounded=0;orthogonalLoop=1;jettySize=auto;html=1;" edge="1" parent="1" source="JczIq_RWZngDEP0yUa-Y-6" target="JczIq_RWZngDEP0yUa-Y-2">
          <mxGeometry relative="1" as="geometry" />
        </mxCell>
        <mxCell id="JczIq_RWZngDEP0yUa-Y-6" value="Messenger for customers" style="shape=image;html=1;verticalAlign=top;verticalLabelPosition=bottom;labelBackgroundColor=#ffffff;imageAspect=0;aspect=fixed;image=https://cdn2.iconfinder.com/data/icons/social-media-2285/512/1_Facebook_colored_svg_copy-128.png" vertex="1" parent="1">
          <mxGeometry x="430" y="-180" width="62" height="62" as="geometry" />
        </mxCell>
        <mxCell id="JczIq_RWZngDEP0yUa-Y-41" value="" style="rounded=1;whiteSpace=wrap;html=1;arcSize=22;dashed=1;" vertex="1" parent="1">
          <mxGeometry x="270" y="-326" width="420" height="96" as="geometry" />
        </mxCell>
        <mxCell id="JczIq_RWZngDEP0yUa-Y-31" style="edgeStyle=orthogonalEdgeStyle;rounded=0;orthogonalLoop=1;jettySize=auto;html=1;entryX=1;entryY=0.5;entryDx=0;entryDy=0;" edge="1" parent="1" source="JczIq_RWZngDEP0yUa-Y-21" target="JczIq_RWZngDEP0yUa-Y-39">
          <mxGeometry relative="1" as="geometry">
            <mxPoint x="878" y="-327.5" as="sourcePoint" />
            <mxPoint x="570" y="-210" as="targetPoint" />
            <Array as="points">
              <mxPoint x="929" y="-287" />
            </Array>
          </mxGeometry>
        </mxCell>
        <mxCell id="JczIq_RWZngDEP0yUa-Y-34" value="delivers the reply message to the&lt;br/&gt;customer through APIs from the source&lt;br/&gt;channel." style="edgeLabel;html=1;align=center;verticalAlign=middle;resizable=0;points=[];" vertex="1" connectable="0" parent="JczIq_RWZngDEP0yUa-Y-31">
          <mxGeometry x="0.2988" y="2" relative="1" as="geometry">
            <mxPoint as="offset" />
          </mxGeometry>
        </mxCell>
        <mxCell id="JczIq_RWZngDEP0yUa-Y-35" value="Add support for digital messaging channels (like Facebook Messenger and Slack) to your contact center using Amazon&lt;br style=&quot;font-size: 18px;&quot;&gt;Connect Chat’s Message Streaming APIs and Serverless Services on AWS." style="text;html=1;align=center;verticalAlign=middle;resizable=0;points=[];autosize=1;strokeColor=none;fillColor=none;fontSize=18;fontFamily=Helvetica;" vertex="1" parent="1">
          <mxGeometry x="100" y="-790" width="970" height="60" as="geometry" />
        </mxCell>
        <mxCell id="JczIq_RWZngDEP0yUa-Y-37" style="edgeStyle=orthogonalEdgeStyle;rounded=0;orthogonalLoop=1;jettySize=auto;html=1;" edge="1" parent="1" source="JczIq_RWZngDEP0yUa-Y-36" target="JczIq_RWZngDEP0yUa-Y-14">
          <mxGeometry relative="1" as="geometry" />
        </mxCell>
        <mxCell id="JczIq_RWZngDEP0yUa-Y-38" value="Text per contact" style="edgeLabel;html=1;align=center;verticalAlign=middle;resizable=0;points=[];" vertex="1" connectable="0" parent="JczIq_RWZngDEP0yUa-Y-37">
          <mxGeometry x="-0.3987" y="-1" relative="1" as="geometry">
            <mxPoint as="offset" />
          </mxGeometry>
        </mxCell>
        <mxCell id="JczIq_RWZngDEP0yUa-Y-36" value="Legacy Contact Center" style="shape=mxgraph.cisco.misc.contact_center;html=1;pointerEvents=1;dashed=0;fillColor=#036897;strokeColor=#ffffff;strokeWidth=2;verticalLabelPosition=bottom;verticalAlign=top;align=center;outlineConnect=0;" vertex="1" parent="1">
          <mxGeometry x="310" y="-320" width="61" height="66" as="geometry" />
        </mxCell>
        <mxCell id="JczIq_RWZngDEP0yUa-Y-40" style="edgeStyle=orthogonalEdgeStyle;rounded=0;orthogonalLoop=1;jettySize=auto;html=1;entryX=0.427;entryY=-0.01;entryDx=0;entryDy=0;entryPerimeter=0;" edge="1" parent="1" source="JczIq_RWZngDEP0yUa-Y-39" target="JczIq_RWZngDEP0yUa-Y-2">
          <mxGeometry relative="1" as="geometry">
            <mxPoint x="530" y="-320" as="targetPoint" />
          </mxGeometry>
        </mxCell>
        <mxCell id="JczIq_RWZngDEP0yUa-Y-39" value="Contact Center&#xa;AI Platform" style="sketch=0;html=1;verticalAlign=top;labelPosition=center;verticalLabelPosition=bottom;align=center;spacingTop=-6;fontSize=11;fontStyle=1;fontColor=#999999;shape=image;aspect=fixed;imageAspect=0;image=data:image/svg+xml,PHN2ZyB4bWxucz0iaHR0cDovL3d3dy53My5vcmcvMjAwMC9zdmciIGlkPSJzdmc2MjQ2IiB2ZXJzaW9uPSIxLjEiIHZpZXdCb3g9IjAgMCAxNDIuMzY1NzQgMTg1LjQwMDQ1IiBoZWlnaHQ9IjE4NS40MDA0NW1tIiB3aWR0aD0iMTQyLjM2NTc0bW0iPiYjeGE7ICAmI3hhOyAgPGRlZnMgaWQ9ImRlZnM2MjQzIi8+JiN4YTsgIDxnIHRyYW5zZm9ybT0idHJhbnNsYXRlKC0zNy40NTI3MTEsLTU1LjAxNDgzOCkiIGlkPSJsYXllcjEiPiYjeGE7ICAgIDxwYXRoIGlkPSJwYXRoNjM3OSIgZD0iTSA3NS42NTQ0NzYsMjA0Ljc3MjcgNDUuMTMwNTE3LDE4Ni43OTU0IGMgLTUuODQwMzQ1LC0zLjMxMzMyIC03LjM5NjkxMiwtNS45MjE4NCAtNy4zOTY5MTIsLTEzLjk1MTE0IGwgLTAuMjgwODk0LC02Ny4yMjc2MiBjIDAsLTkuMzA5NTUgMi42NTc3MywtMTEuOTA5ODY4IDguODAxMzg3LC0xNS45MTczOTggTCAxMDIuODA3Nyw1Ni4zNjYzMjkgYyAyLjkzMjI5LC0xLjUzNTAwMSA4LjY2MjA2LC0yLjEyMTEzNyAxMi4xNzIxMiwwLjE4NzI2NCBsIDU2LjQ2NjYyLDMzLjM3ODM1MSBjIDYuNTQxMzYsMy42ODA5NTMgOC4zNzIwMSw2LjY5Mzg4MyA4LjM3MjAxLDE0Ljk4MTA4NiBsIC0wLjI4NzU1LDY4Ljk4MTE0IGMgLTAuMTcxNzEsNi4xMzYxNCAtMi4xOTk1NCw5LjgwODQyIC03LjExNjAxLDEyLjkwNzg4IGwgLTg5LjU1MDc2OCw1Mi4zMzM1MSBjIC0zLjk4NjEzMSwyLjczMDI0IC03LjAyMjM4MiwwLjgzODE3IC03LjAyMjM4MiwtMy4yNzcxMSB6IiBzdHlsZT0ib3BhY2l0eToxO2ZpbGw6IzQyODVmNDtmaWxsLW9wYWNpdHk6MTtzdHJva2U6bm9uZTtzdHJva2Utd2lkdGg6MC4yNjQ1ODNweDtzdHJva2UtbGluZWNhcDpidXR0O3N0cm9rZS1saW5lam9pbjptaXRlcjtzdHJva2Utb3BhY2l0eToxIi8+JiN4YTsgICAgPHBhdGggZD0ibSA5OC41MDA2MjksMTc0LjkwNDE2IGEgMTAuMTEyMjMyLDEwLjExMjIzMiAwIDAgMSAtMTAuMTEyMjMyLDEwLjExMjIzIDEwLjExMjIzMiwxMC4xMTIyMzIgMCAwIDEgLTEwLjExMjIzMiwtMTAuMTEyMjMgMTAuMTEyMjMyLDEwLjExMjIzMiAwIDAgMSAxMC4xMTIyMzIsLTEwLjExMjIzIDEwLjExMjIzMiwxMC4xMTIyMzIgMCAwIDEgMTAuMTEyMjMyLDEwLjExMjIzIHogbSA2Mi41NDYwNDEsLTM1Ljk1NDYxIGEgMTAuMTEyMjMyLDEwLjExMjIzMiAwIDAgMSAtMTAuMTEyMjQsMTAuMTEyMjQgMTAuMTEyMjMyLDEwLjExMjIzMiAwIDAgMSAtMTAuMTEyMjMsLTEwLjExMjI0IDEwLjExMjIzMiwxMC4xMTIyMzIgMCAwIDEgMTAuMTEyMjMsLTEwLjExMjIzIDEwLjExMjIzMiwxMC4xMTIyMzIgMCAwIDEgMTAuMTEyMjQsMTAuMTEyMjMgeiBtIC0zMC4xNDk0NCwtMC4zNzQ1MiBhIDIxLjUzNTMwOSwyMS41MzUzMDkgMCAwIDEgLTIxLjUzNTMxLDIxLjUzNTMxIDIxLjUzNTMwOSwyMS41MzUzMDkgMCAwIDEgLTIxLjUzNTMwNiwtMjEuNTM1MzEgMjEuNTM1MzA5LDIxLjUzNTMwOSAwIDAgMSAyMS41MzUzMDYsLTIxLjUzNTMxIDIxLjUzNTMwOSwyMS41MzUzMDkgMCAwIDEgMjEuNTM1MzEsMjEuNTM1MzEgeiBNIDk4LjMxMzM2NiwxMDIuNjIwNDIgQSAxMC4xMTIyMzIsMTAuMTEyMjMyIDAgMCAxIDg4LjIwMTEzNCwxMTIuNzMyNjUgMTAuMTEyMjMyLDEwLjExMjIzMiAwIDAgMSA3OC4wODg5MDIsMTAyLjYyMDQyIDEwLjExMjIzMiwxMC4xMTIyMzIgMCAwIDEgODguMjAxMTM0LDkyLjUwODE5IDEwLjExMjIzMiwxMC4xMTIyMzIgMCAwIDEgOTguMzEzMzY2LDEwMi42MjA0MiBaIG0gNDYuNDQwNTQ0LDUxLjI0Mjg2IGEgNSw1IDAgMCAwIC0zLDIuMzc2OTUgYyAtNy45MzcwOCwxNC4yNTY2NiAtMTYuNzMzNDIsMTguNTQ2IC0zMy43NTE5NiwxOS41NzgxMyBhIDUsNSAwIDAgMCAtNC42ODc1LDUuMjk0OTIgNSw1IDAgMCAwIDUuMjkyOTcsNC42ODc1IGMgMTguODQyMDUsLTEuMTQyNzIgMzIuNjM3MzgsLTguMDg1MDUgNDEuODg0NzcsLTI0LjY5NTMxIGEgNSw1IDAgMCAwIC0xLjkzNzUsLTYuODAwNzggNSw1IDAgMCAwIC0zLjgwMDc4LC0wLjQ0MTQxIHogTSAxMDcuNzQyMTksOTIuMzYzMjgxIGEgNSw1IDAgMCAwIC00Ljg0NzY2LDUuMTQ2NDg1IDUsNSAwIDAgMCA1LjE0ODQ0LDQuODQ3NjU0IGMgMTYuMzA5NzgsLTAuNDg5OTEgMjQuNTAwMTYsNC44NjU4NSAzNC4xMDc0MiwxOC45NTExNyBhIDUsNSAwIDAgMCA2Ljk0OTIyLDEuMzE0NDYgNSw1IDAgMCAwIDEuMzEyNSwtNi45NDkyMiBDIDEzOS43NzU0MywxMDAuMDc5MjggMTI2Ljc0NDUzLDkxLjc5MjQ5MyAxMDcuNzQyMTksOTIuMzYzMjgxIFogTSA3Mi4wODAwNzgsMTEyLjI3NTM5IGEgNSw1IDAgMCAwIC0yLjkyNTc4MSwyLjQ2NjggYyAtOC42NzU5NzgsMTYuNzY0NzIgLTkuNzg0Nzk2LDMyLjE2NzM0IC0wLjI2MTcxOSw0OC42MjEwOSBhIDUsNSAwIDAgMCA2LjgzMjAzMSwxLjgyNDIyIDUsNSAwIDAgMCAxLjgyMjI2NiwtNi44MzIwMyBjIC04LjE3MzY5NSwtMTQuMTIyMzIgLTcuMzQ4MDQzLC0yMy44NzUzMyAwLjQ4ODI4MSwtMzkuMDE3NTggYSA1LDUgMCAwIDAgLTIuMTQyNTc4LC02LjczODI4IDUsNSAwIDAgMCAtMy44MTI1LC0wLjMyNDIyIHoiIHN0eWxlPSJjb2xvcjojMDAwMDAwO29wYWNpdHk6MTtmaWxsOiNmZmZmZmY7ZmlsbC1vcGFjaXR5OjE7c3Ryb2tlLXdpZHRoOjIwO3N0cm9rZS1saW5lY2FwOnJvdW5kO3N0cm9rZS1saW5lam9pbjpyb3VuZDstaW5rc2NhcGUtc3Ryb2tlOm5vbmUiIGlkPSJwYXRoNjQwNy0yIi8+JiN4YTsgIDwvZz4mI3hhOzwvc3ZnPg==;" vertex="1" parent="1">
          <mxGeometry x="620" y="-308" width="32" height="42" as="geometry" />
        </mxCell>
        <mxCell id="JczIq_RWZngDEP0yUa-Y-47" value="Optional Contact Center integration" style="text;html=1;align=center;verticalAlign=middle;resizable=0;points=[];autosize=1;strokeColor=none;fillColor=none;" vertex="1" parent="1">
          <mxGeometry x="452" y="-330" width="210" height="30" as="geometry" />
        </mxCell>
      </root>
    </mxGraphModel>
  </diagram>
</mxfile>
